<svg width="240" height="46" viewBox="0 0 240 46" fill="none" xmlns="http://www.w3.org/2000/svg">
<g clip-path="url(#clip0_4036_51985)">
<path d="M76.366 23.4383H72.7552L74.5693 18.9001L76.366 23.4383ZM83.1008 29.7847C82.9617 29.7094 81.988 29.0197 81.3678 27.5997C81.2403 27.3157 77.7744 18.6277 77.7744 18.6277C76.8007 16.2225 75.5198 16.1819 74.9113 16.1819L73.8101 16.2051H72.6219C73.4217 16.6282 72.7262 18.3379 72.7262 18.3379L68.9705 27.5997C68.9705 27.5997 68.1127 29.7847 68.9705 29.7847H71.2773C70.4311 29.182 71.0802 27.5765 71.0802 27.5765H71.057L72.1814 24.8351H76.9224L78.0468 27.6229C78.0468 27.6229 78.9162 29.7905 79.7798 29.7905H83.095L83.1008 29.7847Z" fill="#0033A1"/>
<path d="M87.0883 20.9694C86.6594 21.2418 86.4797 21.3462 86.3754 22.0648V27.5767C86.3754 28.9677 87.4187 29.7327 87.4998 29.7849H84.5555C83.6919 29.7849 83.6919 27.5999 83.6919 27.5999V21.0564C83.6919 21.0564 83.6919 19.306 82.6545 18.9235L84.428 18.9003C85.7321 18.9003 86.2073 19.2423 86.3406 20.9289C86.7927 18.7148 88.6358 18.7148 88.6358 18.7148C88.6358 18.7148 89.8471 18.7148 90.1253 19.4973V21.4157C89.3719 20.5058 88.0504 20.3551 87.0941 20.9752" fill="#0033A1"/>
<path d="M106.423 24.2208C106.423 26.2899 106.099 29.0314 104.627 29.0314C104.627 29.0314 103.456 29.0314 102.824 27.3853V21.6417C103.259 20.5462 104.557 20.5462 104.557 20.5462C106.296 20.5462 106.423 23.1022 106.423 24.2208ZM109.321 24.4468C109.321 21.7866 108.11 18.7959 105.16 18.7959C103.995 18.6916 102.824 19.9609 102.824 19.9609L102.847 18.8191C102.917 16.3906 101.549 16.3906 100.923 16.3906H99.1437C100.164 16.8311 100.164 18.5409 100.164 18.5409V27.1129C100.164 28.7821 101.676 30.0051 104.082 30.0051H104.47C107.049 30.0051 109.315 28.0403 109.315 24.4526" fill="#0033A1"/>
<path d="M112.439 18.1004C111.686 18.1004 111.077 17.5093 111.077 16.7906C111.077 16.0719 111.686 15.5039 112.439 15.5039C113.193 15.5039 113.807 16.0719 113.807 16.7906C113.807 17.5093 113.204 18.1004 112.439 18.1004ZM112.01 29.7849C111.101 29.7849 111.101 27.6172 111.101 27.6172V21.0563C111.101 21.0563 111.101 19.3465 110.08 18.9235H111.854C112.486 18.9235 113.784 18.9003 113.784 21.3287V27.594H113.807C113.807 27.594 113.807 29.0314 114.932 29.7791H112.01V29.7849Z" fill="#0033A1"/>
<path d="M132.945 29.7848C132.076 29.7848 132.076 27.5997 132.076 27.5997V22.2792C132.076 21.4561 131.299 20.7375 130.58 20.7375C129.323 20.7375 128.888 21.601 128.847 21.8561V27.5708C128.847 28.9618 129.885 29.7268 129.972 29.779H127.045C126.158 29.779 126.158 27.5939 126.158 27.5939V21.1316C126.158 21.1316 126.158 19.387 125.051 18.8944H126.825C126.825 18.8944 128.645 18.8944 128.772 20.9809C129.549 18.7031 131.803 18.7031 131.803 18.7031C132.997 18.7031 134.73 19.4856 134.73 21.8503L134.753 27.565C134.753 27.565 134.753 29.0023 135.855 29.7732H132.933L132.945 29.7848Z" fill="#0033A1"/>
<path d="M148.374 23.4383H144.757L146.577 18.9001L148.374 23.4383ZM155.317 29.7847C153.961 29.0313 153.375 27.5997 153.375 27.5997L149.782 18.6277C148.802 16.2225 147.527 16.1819 146.919 16.1819L145.812 16.2051H144.629C145.429 16.6282 144.734 18.3379 144.734 18.3379L140.995 27.5997C140.995 27.5997 140.12 29.7847 140.995 29.7847H143.285C142.444 29.182 143.094 27.5765 143.094 27.5765H143.07L144.201 24.8351H148.947L150.072 27.6229C150.072 27.6229 150.935 29.7905 151.799 29.7905H155.329L155.317 29.7847Z" fill="#0033A1"/>
<path d="M161.165 28.214C160.707 28.6951 160.168 28.6951 160.168 28.6951C157.699 28.6951 157.595 25.8667 157.595 24.7307C157.595 22.6616 157.618 19.7695 159.287 19.7695C159.287 19.7695 160.591 19.7695 161.165 21.3981V28.214ZM163.872 27.8315H163.848V18.6741C163.848 16.2456 162.55 16.2688 161.924 16.2688H160.145C161.159 16.6919 161.159 18.4017 161.159 18.4017V19.5782C160.58 18.761 159.322 18.761 159.322 18.761C156.714 18.761 154.662 21.1663 154.662 24.7307C154.662 27.3678 156.615 30.005 159.409 30.005C159.409 30.005 162.655 30.005 163.866 27.8315" fill="#0033A1"/>
<path d="M193.848 29.7848C192.984 29.7848 192.984 27.5997 192.984 27.5997V22.2792C192.984 21.4561 192.202 20.7375 191.489 20.7375C190.231 20.7375 189.796 21.601 189.756 21.8561V27.5708C189.756 28.9618 190.799 29.7268 190.88 29.779H187.953C187.072 29.779 187.072 27.5939 187.072 27.5939V21.1316C187.072 21.1316 187.072 19.387 185.965 18.8944H187.739C187.739 18.8944 189.565 18.8944 189.692 20.9809C190.469 18.7031 192.718 18.7031 192.718 18.7031C193.917 18.7031 195.65 19.4856 195.65 21.8503L195.668 27.565C195.668 27.565 195.668 29.0023 196.775 29.7732H193.848V29.7848Z" fill="#0033A1"/>
<path d="M203.875 20.61C203.144 20.2101 202.142 20.2101 202.142 20.2101C201.666 20.2101 202.211 20.1927 201.429 20.1927V27.6867C201.429 27.6867 201.429 29.0603 202.559 29.7906L199.632 29.8022C198.745 29.8022 198.745 27.7099 198.745 27.7099V20.1985L196.862 20.1753C198.635 19.3581 199.464 18.68 199.464 18.68C199.464 18.68 200.785 17.6193 201.429 16.5239V18.9292H203.898L203.875 20.6158V20.61Z" fill="#0033A1"/>
<path d="M212.852 29.7849C212.852 29.7849 212.168 29.7849 211.931 28.0809C211.467 29.982 209.224 29.982 209.224 29.982C208.024 29.982 206.077 29.4951 206.077 27.0261V21.0912C206.077 21.0912 206.077 19.364 204.953 18.8945H207.114C208.76 18.8945 208.76 21.0738 208.76 21.0738L208.743 26.603C208.743 27.426 209.52 28.1447 210.233 28.1447C210.233 28.1447 211.705 28.1447 211.965 27.0261V21.0912C211.965 19.2133 210.934 18.9409 210.835 18.9177H213.113C214.655 18.9177 214.655 21.0738 214.655 21.0738V27.6173C214.655 27.6173 214.655 29.1358 215.756 29.7849H212.852Z" fill="#0033A1"/>
<path d="M220.439 20.9694C220.004 21.2418 219.825 21.3462 219.72 22.0648V27.5767C219.72 28.9677 220.764 29.7327 220.839 29.7849H217.906C217.037 29.7849 217.037 27.5999 217.037 27.5999V21.0564C217.037 21.0564 217.037 19.306 215.999 18.9235L217.779 18.9003C219.077 18.9003 219.552 19.2423 219.68 20.9289C220.138 18.7148 221.981 18.7148 221.981 18.7148C221.981 18.7148 223.192 18.7148 223.476 19.4973V21.4157C222.711 20.5058 221.384 20.3551 220.439 20.9752" fill="#0033A1"/>
<path d="M229.139 22.7428C228.374 24.1164 227.255 24.2613 226.612 24.9568C226.217 19.9144 228.321 19.7637 228.321 19.7637C230.043 19.642 229.649 21.8328 229.133 22.7428M231.944 27.2288C230.75 29.2573 229 28.7821 228.327 28.4865C228.327 28.4865 226.948 27.8953 226.78 26.1855C227.84 24.922 229.301 25.177 230.999 23.4615C233.23 21.1837 231.555 18.7726 228.501 18.7958C225.36 18.7958 223.714 21.6242 223.714 24.6438C223.714 27.6635 225.794 29.9992 229.057 29.9992C230.895 29.9992 231.718 29.3964 231.944 29.1878V27.223V27.2288Z" fill="#0033A1"/>
<path d="M120.948 27.9592C120.919 27.994 120.374 28.7301 119.4 28.7301C118.687 28.7301 117.94 28.1737 117.94 27.2405C117.94 24.8353 120.339 24.1224 120.953 23.4211V27.9534L120.948 27.9592ZM124.738 29.7965C123.596 29.0488 123.596 27.6462 123.596 27.6462V21.5432C123.596 20.1 121.927 18.7148 120.188 18.7148C120.188 18.7148 118.479 18.7148 117.418 19.7117V21.6649C118.195 19.9667 119.568 19.9667 119.568 19.9667C120.82 19.9667 121.237 20.6333 121.237 21.2882C121.237 22.175 120.727 22.6792 119.98 23.0327C118.218 23.8384 115.621 24.4527 115.621 27.3564C115.621 29.0083 117.047 29.9878 118.415 29.9878C120.432 29.9878 120.982 28.5678 121 28.504C121 28.504 121.191 29.7269 121.788 29.7965H124.732H124.738Z" fill="#0033A1"/>
<path d="M95.2199 27.9592C95.1909 27.994 94.6461 28.7301 93.6724 28.7301C92.9537 28.7301 92.206 28.1737 92.206 27.2405C92.206 24.8353 94.6055 24.1224 95.2199 23.4211V27.9534V27.9592ZM99.0104 29.7965C97.8686 29.0488 97.8686 27.6462 97.8686 27.6462V21.5432C97.8686 20.1 96.1994 18.7148 94.4664 18.7148C94.4664 18.7148 92.7566 18.7148 91.6902 19.7117V21.6649C92.4668 19.9667 93.8463 19.9667 93.8463 19.9667C95.0924 19.9667 95.5097 20.6333 95.5097 21.2882C95.5097 22.175 95.0054 22.6792 94.252 23.0327C92.4958 23.8384 89.8993 24.4527 89.8993 27.3564C89.8993 29.0083 91.3193 29.9878 92.6871 29.9878C94.704 29.9878 95.2489 28.5678 95.272 28.504C95.272 28.504 95.4633 29.7269 96.0603 29.7965H99.0104Z" fill="#0033A1"/>
<path d="M236.018 30.0341C234.169 30.0341 233.265 29.2111 233.254 29.2169V27.2232C233.856 28.7764 235.363 28.7764 235.363 28.7764C236.87 28.7764 237.548 27.7448 237.531 26.9739C237.531 26.4059 237.241 25.8264 236.372 25.3453C235.781 25.0323 235.282 24.7136 234.871 24.3948C233.775 23.5892 233.254 22.7546 233.236 21.4157C233.178 19.9204 234.732 18.7612 236.528 18.7612C238.325 18.7612 239.304 19.6364 239.333 19.648V21.5027C238.713 20.1117 237.253 19.9552 237.253 19.9552C235.746 19.8335 235.578 20.7202 235.601 21.1028C235.601 21.3172 235.914 21.92 236.453 22.2387C237.403 22.8531 238.632 23.4906 239.31 24.389C239.716 24.9454 239.983 25.5945 239.994 26.3364C240.046 28.4635 238.012 30.0283 236.012 30.0283" fill="#0033A1"/>
<path d="M173.139 27.9069C173.139 27.9069 172.687 29.0893 173.232 29.7674H170.786C169.378 29.7674 168.282 29.3849 167.604 26.9506C165.952 21.0679 165.935 21.0389 165.935 21.0389C165.935 21.0389 165.616 19.4624 164.735 18.906H166.885C167.442 18.906 168.201 19.416 168.578 21.0679C168.578 21.0679 168.659 21.4852 169.998 26.4696C170.235 27.3737 170.647 28.3706 171.256 28.6198C170.896 26.9275 171.563 25.5364 171.563 25.5364C171.858 24.7076 173.11 21.207 173.162 21.0679C173.452 20.2912 173.371 19.2943 172.733 18.906H174.948C175.278 19.0045 176.153 19.7812 175.684 21.0794C175.481 21.6474 173.794 26.2319 173.133 27.9012" fill="#0033A1"/>
<path d="M182.169 22.7428C181.41 24.1164 180.291 24.2613 179.642 24.9568C179.254 19.9144 181.363 19.7637 181.363 19.7637C183.079 19.642 182.691 21.8328 182.169 22.7428ZM184.986 27.2288C183.792 29.2573 182.042 28.7821 181.375 28.4865C181.375 28.4865 179.996 27.8953 179.822 26.1855C180.882 24.922 182.349 25.177 184.035 23.4615C186.267 21.1837 184.603 18.7726 181.549 18.7958C178.408 18.7958 176.762 21.6242 176.762 24.6438C176.762 27.6635 178.836 29.9992 182.111 29.9992C183.948 29.9992 184.766 29.3964 184.986 29.1878V27.223V27.2288Z" fill="#0033A1"/>
<path d="M60.3289 44.7265C58.4163 44.6628 45.4626 42.1879 30.4687 44.5468C13.7419 47.1666 1.76771 43.7992 1.04323 43.5152C0.417283 43.2775 0.0115743 42.7907 -0.00581327 42.2459C-0.0405883 41.4924 1.10119 40.7969 1.10119 40.7969C1.10119 40.7969 5.99288 37.7773 9.40084 32.59C12.1133 28.4576 30.1036 0.979497 30.1036 0.979497C30.1036 0.979497 30.689 0 31.4424 0C32.1959 0 32.7349 0.909947 32.7349 0.909947C32.7349 0.909947 53.3507 32.2539 54.8228 34.3983C56.7992 37.2962 61.2099 41.7648 61.2099 41.7648C61.2099 41.7648 62.4444 42.7617 62.0097 43.6948C61.6272 44.5352 61.0824 44.7497 60.3347 44.7265" fill="white"/>
<path d="M34.3635 21.6647C35.0011 21.1779 35.0822 20.7258 34.9605 20.4418C34.8214 20.0999 34.3577 19.8738 33.6043 20.1115C31.8018 20.6737 23.5485 21.4793 22.0706 16.6224C22.0764 16.5934 13.8694 28.9269 13.8694 28.9269C19.6653 23.8788 30.6484 24.4989 34.3693 21.6705" fill="#0033A1"/>
<path d="M37.8237 11.8351C37.6034 11.6381 33.3203 4.92649 31.4424 2.02856C29.4545 5.0424 27.9244 7.44768 25.7451 10.7861C28.3417 9.21541 34.6128 9.33712 37.8237 11.8351Z" fill="#0033A1"/>
<path d="M10.3455 34.4854C8.31121 37.5687 5.87116 39.5915 2.62549 41.8113C5.36692 42.6807 9.31968 43.324 13.8868 43.6602C13.8868 43.6718 9.09365 40.4609 10.3455 34.4854Z" fill="#0033A1"/>
<path d="M39.0872 13.8579C39.4871 14.9128 39.6378 16.0256 39.4581 16.9819C37.2557 28.3417 18.4308 23.3573 12.9247 32.6712C10.7223 36.3921 12.4495 42.188 19.532 43.9847C27.4317 44.2513 36.7283 41.9967 43.6949 42.0431C33.9752 34.5665 46.1001 20.4826 39.0872 13.8637" fill="#FFB548"/>
<path d="M60.2768 43.0863C56.7065 40.1072 54.3244 37.1513 52.2727 34.1607C49.9659 30.8107 42.3386 18.7959 42.3386 18.7959C43.5731 24.3193 40.2927 29.9935 42.0894 36.0849C42.9066 38.8611 45.6017 41.0229 47.4216 41.9909C51.7743 41.9909 54.0636 42.1358 60.2825 43.0805" fill="#007934"/>
<path d="M37.6846 13.4232C36.5196 11.8467 33.9404 10.8962 30.6542 10.9136C25.9074 10.9367 23.2529 13.1102 23.2645 14.9417C23.2761 17.0745 26.0929 19.1437 30.5904 19.1437C31.9872 19.1437 33.1754 18.9582 34.294 18.6916C35.4821 18.3091 35.9574 18.6104 36.195 18.9582C36.5138 19.4277 36.195 20.1347 36.195 20.1347C38.1134 18.7495 39.2147 15.4633 37.6846 13.4174" fill="#F5333F"/>
</g>
<defs>
<clipPath id="clip0_4036_51985">
<rect width="240" height="45.5379" fill="white"/>
</clipPath>
</defs>
</svg>
